<?xml version="1.0" encoding="UTF-8"?>
<svg xmlns="http://www.w3.org/2000/svg" xmlns:xlink="http://www.w3.org/1999/xlink" viewBox="0 0 48 48" width="48px" height="48px">
<g id="surface141745796">
<path style=" stroke:none;fill-rule:nonzero;fill:rgb(92.54902%,94.117647%,94.509804%);fill-opacity:1;" d="M 43.945312 7.023438 L 42.824219 3.300781 C 42.679688 2.808594 42.34375 2.394531 41.894531 2.152344 C 41.441406 1.90625 40.914062 1.855469 40.421875 2.003906 L 35.832031 3.414062 C 35.484375 3.519531 35.230469 3.816406 35.167969 4.171875 L 34.085938 10.605469 C 34.035156 10.882812 34.113281 11.167969 34.296875 11.382812 C 34.480469 11.601562 34.746094 11.722656 35.03125 11.722656 C 35.125 11.722656 35.222656 11.710938 35.3125 11.683594 L 42.664062 9.425781 C 43.679688 9.113281 44.253906 8.039062 43.945312 7.023438 Z M 43.945312 7.023438 "/>
<path style=" stroke:none;fill-rule:nonzero;fill:rgb(90.588236%,29.803923%,23.529412%);fill-opacity:1;" d="M 36.746094 3.609375 C 36.496094 3.390625 36.152344 3.316406 35.832031 3.414062 L 28.488281 5.679688 C 28.140625 5.789062 27.886719 6.082031 27.824219 6.4375 L 26.738281 12.871094 C 26.683594 13.199219 26.804688 13.53125 27.054688 13.75 C 27.304688 13.96875 27.648438 14.042969 27.96875 13.945312 L 35.3125 11.691406 C 35.664062 11.578125 35.925781 11.277344 35.980469 10.910156 L 37.0625 4.492188 C 37.117188 4.164062 37 3.828125 36.746094 3.609375 Z M 36.746094 3.609375 "/>
<path style=" stroke:none;fill-rule:nonzero;fill:rgb(92.54902%,94.117647%,94.509804%);fill-opacity:1;" d="M 29.40625 5.875 C 29.15625 5.65625 28.808594 5.582031 28.488281 5.679688 L 21.136719 7.9375 C 20.789062 8.042969 20.53125 8.335938 20.472656 8.695312 L 19.386719 15.125 C 19.332031 15.453125 19.449219 15.789062 19.699219 16.007812 C 19.949219 16.226562 20.296875 16.300781 20.613281 16.203125 L 27.96875 13.945312 C 28.316406 13.839844 28.574219 13.546875 28.632812 13.1875 L 29.71875 6.757812 C 29.773438 6.429688 29.65625 6.097656 29.40625 5.875 Z M 29.40625 5.875 "/>
<path style=" stroke:none;fill-rule:nonzero;fill:rgb(90.588236%,29.803923%,23.529412%);fill-opacity:1;" d="M 22.050781 8.132812 C 21.800781 7.910156 21.453125 7.839844 21.136719 7.9375 L 6.4375 12.457031 C 6.140625 12.550781 5.90625 12.78125 5.808594 13.078125 C 5.710938 13.371094 5.761719 13.699219 5.949219 13.949219 L 9.636719 18.910156 C 9.878906 19.238281 10.300781 19.375 10.6875 19.257812 L 20.613281 16.203125 C 20.960938 16.097656 21.21875 15.804688 21.28125 15.445312 L 22.363281 9.011719 C 22.417969 8.683594 22.300781 8.351562 22.050781 8.132812 Z M 22.050781 8.132812 "/>
<path style=" stroke:none;fill-rule:nonzero;fill:rgb(90.588236%,29.803923%,23.529412%);fill-opacity:1;" d="M 43.199219 25.921875 L 43.199219 26.882812 C 43.199219 27.074219 43.144531 27.261719 43.035156 27.417969 L 42.75 27.839844 L 30.558594 45.65625 C 30.378906 45.921875 30.078125 46.082031 29.761719 46.078125 L 7.679688 46.078125 C 6.089844 46.074219 4.804688 44.789062 4.800781 43.199219 L 4.800781 25.921875 C 4.800781 25.390625 5.230469 24.964844 5.761719 24.960938 L 42.238281 24.960938 C 42.769531 24.964844 43.199219 25.390625 43.199219 25.921875 Z M 43.199219 25.921875 "/>
<path style=" stroke:none;fill-rule:nonzero;fill:rgb(80.000001%,80.000001%,80.000001%);fill-opacity:1;" d="M 41.597656 24.960938 L 33.28125 24.960938 C 29.960938 26.558594 27.847656 29.914062 27.839844 33.601562 L 27.839844 45.121094 C 27.84375 45.457031 27.933594 45.789062 28.105469 46.078125 L 29.761719 46.078125 C 30.078125 46.082031 30.378906 45.921875 30.558594 45.65625 L 42.75 27.839844 L 43.035156 27.417969 C 43.144531 27.261719 43.199219 27.074219 43.199219 26.882812 L 43.199219 25.941406 C 42.699219 25.5625 42.160156 25.234375 41.597656 24.960938 Z M 41.597656 24.960938 "/>
<path style=" stroke:none;fill-rule:nonzero;fill:rgb(92.54902%,94.117647%,94.509804%);fill-opacity:1;" d="M 43.199219 22.082031 L 43.199219 25.921875 C 43.199219 26.449219 42.769531 26.878906 42.238281 26.882812 L 37.921875 26.882812 L 34.078125 19.203125 L 40.320312 19.203125 C 41.910156 19.207031 43.195312 20.492188 43.199219 22.082031 Z M 43.199219 22.082031 "/>
<path style=" stroke:none;fill-rule:nonzero;fill:rgb(15.686275%,20.392157%,25.098041%);fill-opacity:1;" d="M 43.199219 25.921875 L 43.199219 26.882812 C 43.199219 27.074219 43.144531 27.261719 43.035156 27.417969 L 42.75 27.839844 L 4.800781 27.839844 L 4.800781 25.921875 Z M 43.199219 25.921875 "/>
<path style=" stroke:none;fill-rule:nonzero;fill:rgb(90.588236%,29.803923%,23.529412%);fill-opacity:1;" d="M 37.921875 26.882812 L 30.238281 26.882812 L 26.398438 19.203125 L 34.078125 19.203125 Z M 37.921875 26.882812 "/>
<path style=" stroke:none;fill-rule:nonzero;fill:rgb(92.54902%,94.117647%,94.509804%);fill-opacity:1;" d="M 30.238281 26.882812 L 22.558594 26.882812 L 18.71875 19.203125 L 26.398438 19.203125 Z M 30.238281 26.882812 "/>
<path style=" stroke:none;fill-rule:nonzero;fill:rgb(90.588236%,29.803923%,23.529412%);fill-opacity:1;" d="M 22.558594 26.882812 L 5.761719 26.882812 C 5.230469 26.878906 4.800781 26.449219 4.800781 25.921875 L 4.800781 20.996094 C 4.800781 20.550781 5.105469 20.167969 5.539062 20.066406 L 9.035156 19.230469 C 9.105469 19.210938 9.179688 19.203125 9.253906 19.203125 L 18.71875 19.203125 Z M 22.558594 26.882812 "/>
<path style=" stroke:none;fill-rule:nonzero;fill:rgb(15.686275%,20.392157%,25.098041%);fill-opacity:1;" d="M 5.808594 13.078125 C 5.710938 13.371094 5.761719 13.699219 5.949219 13.949219 L 9.636719 18.910156 C 9.878906 19.238281 10.300781 19.375 10.6875 19.257812 L 12.277344 18.765625 C 13.082031 15.820312 11.429688 12.761719 8.523438 11.816406 L 6.4375 12.457031 C 6.140625 12.550781 5.90625 12.78125 5.808594 13.078125 Z M 5.808594 13.078125 "/>
<path style=" stroke:none;fill-rule:nonzero;fill:rgb(15.686275%,20.392157%,25.098041%);fill-opacity:1;" d="M 6.71875 23.042969 C 9.15625 23.039062 11.328125 21.5 12.144531 19.203125 L 9.253906 19.203125 C 9.179688 19.203125 9.105469 19.210938 9.035156 19.230469 L 5.539062 20.066406 C 5.105469 20.167969 4.800781 20.550781 4.800781 20.996094 L 4.800781 22.707031 C 5.417969 22.925781 6.066406 23.039062 6.71875 23.042969 Z M 6.71875 23.042969 "/>
<path style=" stroke:none;fill-rule:nonzero;fill:rgb(80.000001%,80.000001%,80.000001%);fill-opacity:1;" d="M 6.71875 12.480469 C 4.070312 12.484375 1.921875 14.632812 1.921875 17.28125 C 1.921875 19.933594 4.070312 22.082031 6.71875 22.082031 C 9.371094 22.082031 11.519531 19.933594 11.519531 17.28125 C 11.515625 14.632812 9.371094 12.484375 6.71875 12.480469 Z M 6.71875 12.480469 "/>
<path style=" stroke:none;fill-rule:nonzero;fill:rgb(92.54902%,94.117647%,94.509804%);fill-opacity:1;" d="M 23.09375 32.5 L 16.410156 29.15625 C 15.363281 28.632812 14.117188 28.691406 13.121094 29.304688 C 12.125 29.921875 11.519531 31.007812 11.519531 32.179688 L 11.519531 38.863281 C 11.53125 40.027344 12.140625 41.105469 13.132812 41.71875 C 14.125 42.332031 15.359375 42.394531 16.410156 41.882812 L 23.09375 38.542969 C 24.222656 37.957031 24.933594 36.792969 24.933594 35.519531 C 24.933594 34.25 24.222656 33.082031 23.09375 32.5 Z M 23.09375 32.5 "/>
<path style=" stroke:none;fill-rule:nonzero;fill:rgb(80.000001%,80.000001%,80.000001%);fill-opacity:1;" d="M 43.175781 25.921875 L 31.703125 25.921875 C 30.976562 26.46875 30.328125 27.113281 29.777344 27.839844 L 42.75 27.839844 L 43.035156 27.417969 C 43.144531 27.261719 43.199219 27.074219 43.199219 26.882812 L 43.199219 25.941406 Z M 43.175781 25.921875 "/>
<path style=" stroke:none;fill-rule:nonzero;fill:rgb(80.000001%,80.000001%,80.000001%);fill-opacity:1;" d="M 37.441406 24 C 37.125 24 36.8125 24.019531 36.503906 24.050781 L 37.921875 26.882812 L 42.238281 26.882812 C 42.761719 26.878906 43.1875 26.460938 43.195312 25.9375 C 41.539062 24.683594 39.519531 24.003906 37.441406 24 Z M 37.441406 24 "/>
<path style=" stroke:none;fill-rule:nonzero;fill:rgb(80.000001%,80.000001%,80.000001%);fill-opacity:1;" d="M 36.503906 24.050781 C 34.261719 24.269531 32.171875 25.273438 30.597656 26.882812 L 37.921875 26.882812 Z M 36.503906 24.050781 "/>
<path style=" stroke:none;fill-rule:nonzero;fill:rgb(92.54902%,94.117647%,94.509804%);fill-opacity:1;" d="M 37.441406 24.960938 C 32.671875 24.964844 28.804688 28.832031 28.800781 33.601562 L 28.800781 45.121094 C 28.800781 45.375 28.902344 45.617188 29.082031 45.800781 C 29.261719 45.980469 29.503906 46.078125 29.761719 46.078125 C 30.765625 46.070312 31.71875 45.613281 32.359375 44.839844 C 32.832031 44.367188 33.0625 44.160156 33.601562 44.160156 C 34.144531 44.160156 34.375 44.367188 34.847656 44.839844 C 35.480469 45.625 36.4375 46.078125 37.445312 46.078125 C 38.453125 46.078125 39.410156 45.625 40.042969 44.839844 C 40.515625 44.367188 40.746094 44.160156 41.285156 44.160156 C 41.921875 44.109375 42.355469 44.695312 42.855469 45.160156 C 43.414062 45.679688 44.230469 45.816406 44.929688 45.511719 C 45.628906 45.203125 46.078125 44.515625 46.078125 43.75 L 46.078125 33.601562 C 46.074219 28.832031 42.210938 24.964844 37.441406 24.960938 Z M 37.441406 24.960938 "/>
<path style=" stroke:none;fill-rule:nonzero;fill:rgb(32.549021%,40.784314%,49.411765%);fill-opacity:1;" d="M 40.320312 35.519531 C 40.066406 35.519531 39.820312 35.417969 39.640625 35.238281 C 39.460938 35.058594 39.359375 34.816406 39.359375 34.5625 L 39.359375 32.640625 C 39.359375 32.109375 39.789062 31.679688 40.320312 31.679688 C 40.851562 31.679688 41.28125 32.109375 41.28125 32.640625 L 41.28125 34.5625 C 41.28125 34.816406 41.179688 35.058594 41 35.238281 C 40.820312 35.417969 40.574219 35.519531 40.320312 35.519531 Z M 40.320312 35.519531 "/>
<path style=" stroke:none;fill-rule:nonzero;fill:rgb(32.549021%,40.784314%,49.411765%);fill-opacity:1;" d="M 34.558594 35.519531 C 34.304688 35.519531 34.0625 35.417969 33.882812 35.238281 C 33.699219 35.058594 33.601562 34.816406 33.601562 34.5625 L 33.601562 32.640625 C 33.601562 32.109375 34.03125 31.679688 34.558594 31.679688 C 35.089844 31.679688 35.519531 32.109375 35.519531 32.640625 L 35.519531 34.5625 C 35.519531 34.816406 35.417969 35.058594 35.238281 35.238281 C 35.058594 35.417969 34.816406 35.519531 34.558594 35.519531 Z M 34.558594 35.519531 "/>
<path style=" stroke:none;fill-rule:nonzero;fill:rgb(32.549021%,40.784314%,49.411765%);fill-opacity:1;" d="M 38.398438 40.320312 L 36.480469 40.320312 C 35.949219 40.320312 35.519531 39.890625 35.519531 39.359375 C 35.519531 38.832031 35.949219 38.402344 36.480469 38.402344 L 38.398438 38.402344 C 38.929688 38.402344 39.359375 38.832031 39.359375 39.359375 C 39.359375 39.890625 38.929688 40.320312 38.398438 40.320312 Z M 38.398438 40.320312 "/>
</g>
</svg>
